<svg width="512" height="512" viewBox="0 0 512 512" fill="none" xmlns="http://www.w3.org/2000/svg">
  <rect width="512" height="512" rx="52" fill="#000000"/>
  <rect x="14" y="14" width="484" height="484" rx="38" stroke="#FF5A1F" stroke-width="12"/>
  <!-- Orange -->
  <g transform="translate(90,90) scale(2.2)">
    <path d="M20 0H60V10H70V20H80V120H55V95H25V120H0V20H10V10H20V0Z" fill="#FF5A1F"/>
    <rect x="18" y="40" width="12" height="12" fill="#000"/>
    <rect x="42" y="40" width="12" height="12" fill="#000"/>
  </g>
  <!-- Green -->
  <g transform="translate(260,90) scale(2.2)">
    <path d="M20 0H60V10H70V20H80V120H55V95H25V120H0V20H10V10H20V0Z" fill="#8CFF00"/>
    <rect x="15" y="42" width="50" height="10" fill="#000"/>
  </g>
  <!-- Blue -->
  <g transform="translate(90,260) scale(2.2)">
    <path d="M20 0H60V10H70V20H80V120H55V95H25V120H0V20H10V10H20V0Z" fill="#14C8FF"/>
    <rect x="18" y="40" width="12" height="12" fill="#000"/>
    <rect x="42" y="40" width="12" height="12" fill="#000"/>
    <path d="M45 78H60V88H70V68H60V78H45Z" fill="#000"/>
  </g>
  <!-- Purple -->
  <g transform="translate(260,260) scale(2.2)">
    <path d="M20 0H60V10H70V20H80V120H55V95H25V120H0V20H10V10H20V0Z" fill="#7B3CFF"/>
    <rect x="18" y="42" width="44" height="10" fill="#000"/>
    <rect x="28" y="45" width="24" height="4" fill="#7B3CFF"/>
  </g>
</svg>
