<svg width="1400" height="320" viewBox="0 0 1400 320" xmlns="http://www.w3.org/2000/svg">
  <rect width="1400" height="320" fill="#000000"/>
  <!-- orange -->
  <g transform="translate(70 80)">
    <path fill="#FF5A1F" d="M20 0H60V10H70V20H80V120H55V88H25V120H0V20H10V10H20Z"/>
    <rect x="18" y="42" width="10" height="10" fill="#000"/>
    <rect x="42" y="42" width="10" height="10" fill="#000"/>
  </g>
  <!-- green -->
  <g transform="translate(210 80)">
    <path fill="#8CFF00" d="M20 0H60V10H70V20H80V120H55V88H25V120H0V20H10V10H20Z"/>
    <rect x="14" y="42" width="52" height="10" fill="#000"/>
  </g>
  <!-- blue -->
  <g transform="translate(350 80)">
    <path fill="#14C8FF" d="M20 0H60V10H70V20H80V120H55V88H25V120H0V20H10V10H20Z"/>
    <rect x="18" y="42" width="10" height="10" fill="#000"/>
    <rect x="42" y="42" width="10" height="10" fill="#000"/>
    <path fill="#000" d="M44 82H58V92H68V68H58V82H44Z"/>
  </g>
  <!-- purple -->
  <g transform="translate(490 80)">
    <path fill="#7B3CFF" d="M20 0H60V10H70V20H80V120H55V88H25V120H0V20H10V10H20Z"/>
    <rect x="18" y="42" width="44" height="10" fill="#000"/>
    <rect x="30" y="45" width="20" height="4" fill="#7B3CFF"/>
  </g>
  <rect x="650" y="55" width="3" height="190" fill="#2E2E2E"/>
  <text x="720" y="195"
        fill="#FF5A1F"
        font-family="Inter, Arial, sans-serif"
        font-size="150"
        font-weight="800"
        letter-spacing="-6">
    squad
  </text>
</svg>
